<?xml version="1.0" standalone="no"?><!DOCTYPE svg PUBLIC "-//W3C//DTD SVG 1.1//EN" "http://www.w3.org/Graphics/SVG/1.1/DTD/svg11.dtd"><svg t="1662368938679" class="icon" viewBox="0 0 1024 1024" version="1.1" xmlns="http://www.w3.org/2000/svg" p-id="26192" xmlns:xlink="http://www.w3.org/1999/xlink" width="64" height="64"><path d="M668.699737 131.770887c-3.197954 0-6.395908 0-7.994885-1.598977-7.994885-4.796931-11.192838-15.989769-6.395907-23.984653L711.872113 8.649666c4.796931-7.994885 15.989769-11.192838 23.984654-6.395908 7.994885 4.796931 11.192838 15.989769 6.395907 23.984654l-57.563168 97.537591c-3.197954 4.796931-9.593861 7.994885-15.989769 7.994884zM535.936684 309.065446l37.096264-63.527352 28.989452 16.933165-37.096264 63.527353zM421.114153 504.876158l44.339629-75.951403 29.005441 16.933166-44.339629 75.951403zM153.829173 1016.005115c-3.197954 0-6.395908 0-7.994884-1.598976-7.994885-4.796931-11.192838-15.989769-6.395908-23.984654l209.465975-358.170827c4.796931-7.994885 15.989769-11.192838 23.984653-6.395907 7.994885 4.796931 11.192838 15.989769 6.395908 23.984653L168.219966 1008.010231c-3.197954 4.796931-9.593861 7.994885-14.390793 7.994884zM879.764688 453.165245c-4.796931 0-11.192838-3.197954-14.390792-7.994884-4.796931-7.994885-3.197954-17.588746 4.796931-22.385677l79.948845-52.766238c7.994885-4.796931 17.588746-3.197954 22.385677 4.796931 4.796931 7.994885 3.197954 17.588746-4.796931 22.385676l-79.948845 52.766238c-1.598977 3.197954-4.796931 3.197954-7.994885 3.197954zM708.674159 568.291582c-4.796931 0-11.192838-3.197954-14.390792-7.994884-4.796931-7.994885-3.197954-17.588746 4.796931-22.385677l44.771353-30.380561c7.994885-4.796931 17.588746-3.197954 22.385677 4.796931 4.796931 7.994885 3.197954 17.588746-4.796931 22.385676l-44.771353 30.380561c-1.598977 3.197954-4.796931 3.197954-7.994885 3.197954z" p-id="26193" fill="#bfbfbf"></path><path d="M51.494651 1008.010231c-4.796931 0-11.192838-3.197954-14.390792-7.994885-4.796931-7.994885-3.197954-17.588746 4.796931-22.385676L559.969307 632.250658c7.994885-4.796931 17.588746-3.197954 22.385677 4.796931s3.197954 17.588746-4.796931 22.385677L59.489536 1004.812277c-1.598977 1.598977-4.796931 3.197954-7.994885 3.197954zM620.73043 278.876762c-49.568284 0-89.542707-39.974423-89.542707-89.542706s39.974423-89.542707 89.542707-89.542707 89.542707 39.974423 89.542706 89.542707-39.974423 89.542707-89.542706 89.542706z m0-147.105875c-31.979538 0-57.563169 25.58363-57.563169 57.563169s25.58363 57.563169 57.563169 57.563168 57.563169-25.58363 57.563168-57.563168-27.182607-57.563169-57.563168-57.563169zM478.421485 472.352968L432.051155 338.038908l134.31406-46.37033 46.37033 134.31406-134.31406 46.37033z m-12.791815-118.324291l30.380561 84.745776 84.745776-30.380561-30.380561-84.745776-84.745776 30.380561zM406.467524 670.626104c-49.568284 0-89.542707-39.974423-89.542706-89.542707s39.974423-89.542707 89.542706-89.542706 89.542707 39.974423 89.542707 89.542706-38.375446 89.542707-89.542707 89.542707z m0-147.105875c-31.979538 0-57.563169 25.58363-57.563168 57.563168s25.58363 57.563169 57.563168 57.563169 57.563169-25.58363 57.563169-57.563169-25.58363-57.563169-57.563169-57.563168z" p-id="26194" fill="#bfbfbf"></path><path d="M687.88746 680.219966l-137.512014-35.177492 35.177492-137.512014 137.512013 35.177492-35.177491 137.512014z m-105.532476-54.365215l87.94373 22.385676 22.385676-87.943729-87.94373-22.385677-22.385676 87.94373zM815.805612 573.088513c-49.568284 0-89.542707-39.974423-89.542707-89.542707 0-49.568284 39.974423-89.542707 89.542707-89.542706s89.542707 39.974423 89.542707 89.542706c1.598977 49.568284-39.974423 89.542707-89.542707 89.542707z m0-147.105875c-31.979538 0-57.563169 25.58363-57.563169 57.563168s25.58363 57.563169 57.563169 57.563169 57.563169-25.58363 57.563168-57.563169-25.58363-57.563169-57.563168-57.563168z" p-id="26195" fill="#bfbfbf"></path></svg>