<?xml version="1.0" standalone="no"?><!DOCTYPE svg PUBLIC "-//W3C//DTD SVG 1.1//EN" "http://www.w3.org/Graphics/SVG/1.1/DTD/svg11.dtd"><svg t="1661316428623" class="icon" viewBox="0 0 1024 1024" version="1.1" xmlns="http://www.w3.org/2000/svg" p-id="25602" xmlns:xlink="http://www.w3.org/1999/xlink" width="64" height="64"><defs><style type="text/css">@font-face { font-family: feedback-iconfont; src: url("//at.alicdn.com/t/font_1031158_u69w8yhxdu.woff2?t=1630033759944") format("woff2"), url("//at.alicdn.com/t/font_1031158_u69w8yhxdu.woff?t=1630033759944") format("woff"), url("//at.alicdn.com/t/font_1031158_u69w8yhxdu.ttf?t=1630033759944") format("truetype"); }
</style></defs><path d="M376 780c-40 0-74.4-10.4-98.4-34.4-68-68-16.8-220.8 38.4-336.8 64.8-138.4 156-268 208-320C637.6-24 821.6-24 935.2 88.8c113.6 113.6 113.6 297.6 0 411.2-79.2 79.2-380 280-559.2 280z m353.6-744c-66.4 0-132.8 24.8-183.2 76-50.4 50.4-137.6 176-201.6 311.2-70.4 148.8-86.4 258.4-44 300 100 100 494.4-128.8 611.2-245.6 100.8-100.8 100.8-264.8 0-365.6-50.4-50.4-116-76-182.4-76z" p-id="25603"></path><path d="M878.4 451.2c-2.4 0-4-0.8-5.6-2.4-3.2-3.2-3.2-8 0-11.2 79.2-79.2 79.2-207.2 0-286.4-3.2-3.2-3.2-8 0-11.2 3.2-3.2 8-3.2 11.2 0 85.6 85.6 85.6 224 0 308.8-1.6 1.6-3.2 2.4-5.6 2.4zM148.8 1020c-17.6 0-36-6.4-49.6-20-15.2-15.2-21.6-35.2-20-55.2-20 1.6-40-4.8-55.2-20-27.2-27.2-27.2-71.2 0-98.4 24.8-24.8 64-27.2 92-5.6l139.2-139.2c4-4 9.6-5.6 15.2-4 5.6 1.6 9.6 5.6 11.2 11.2 4 14.4 10.4 26.4 19.2 35.2 8.8 8.8 20.8 15.2 35.2 19.2 5.6 1.6 9.6 5.6 11.2 11.2 1.6 5.6 0 11.2-4 15.2l-138.4 138.4c9.6 12 14.4 27.2 14.4 42.4 0 18.4-7.2 36-20 49.6-14.4 12.8-32 20-50.4 20z m-41.6-119.2c4 0 8 1.6 11.2 4.8 5.6 5.6 6.4 15.2 0.8 21.6-12 15.2-11.2 36.8 2.4 50.4 14.4 14.4 38.4 14.4 52.8 0 7.2-7.2 11.2-16.8 11.2-26.4 0-10.4-4-19.2-11.2-26.4-0.8-0.8-2.4-2.4-4-3.2-4-3.2-5.6-7.2-6.4-12 0-4.8 1.6-8.8 4.8-12l132.8-132.8c-9.6-4.8-17.6-11.2-24.8-18.4-7.2-7.2-12.8-15.2-17.6-24.8l-132.8 132.8c-3.2 3.2-8 4.8-12 4.8-4.8 0-8.8-2.4-12-6.4-0.8-1.6-2.4-2.4-3.2-4-14.4-14.4-38.4-14.4-52.8 0-14.4 14.4-14.4 38.4 0 52.8 13.6 13.6 35.2 15.2 50.4 2.4 3.2-2.4 7.2-3.2 10.4-3.2z" p-id="25604"></path></svg>