<?xml version="1.0" standalone="no"?><!DOCTYPE svg PUBLIC "-//W3C//DTD SVG 1.1//EN" "http://www.w3.org/Graphics/SVG/1.1/DTD/svg11.dtd"><svg t="1662367839485" class="icon" viewBox="0 0 1024 1024" version="1.1" xmlns="http://www.w3.org/2000/svg" p-id="5186" xmlns:xlink="http://www.w3.org/1999/xlink" width="64" height="64"><path d="M962.56 568l-320-205.76-4.48-2.24 17.92-189.12a154.24 154.24 0 0 0 0-27.52 144.64 144.64 0 1 0-288 27.52l17.92 189.12-4.48 2.24-320 205.76A64 64 0 0 0 32 622.08v66.24a64 64 0 0 0 85.44 60.16l295.36-105.6 17.6 185.6-69.12 69.12c-13.44 13.44-9.28 30.4-9.28 62.4a32 32 0 0 0 41.28 32l109.76-32a32 32 0 0 1 18.24 0l109.76 32A32 32 0 0 0 672 960c0-32 4.16-48.96-9.28-62.4l-69.12-69.12 17.6-185.6 295.36 105.6A64 64 0 0 0 992 688.32v-66.24a64 64 0 0 0-29.44-54.08z" fill="#bfbfbf" p-id="5187"></path></svg>