<?xml version="1.0" standalone="no"?><!DOCTYPE svg PUBLIC "-//W3C//DTD SVG 1.1//EN" "http://www.w3.org/Graphics/SVG/1.1/DTD/svg11.dtd"><svg t="1662368394471" class="icon" viewBox="0 0 1024 1024" version="1.1" xmlns="http://www.w3.org/2000/svg" p-id="16938" xmlns:xlink="http://www.w3.org/1999/xlink" width="64" height="64"><path d="M930.78 572.58V353.2c0-32.96-26.84-59.76-59.8-59.76h-269.8c-22.8 0-41.34-18.56-41.34-41.38 0-22.78 18.54-41.34 41.34-41.34h226.1c33.66-0.16 61.04-27.68 61.04-61.32 0-33.84-27.52-61.34-61.34-61.34h-549.4c-33.82 0-61.34 27.5-61.34 61.34v33.56c-35.16 4.88-62.34 35.14-62.34 71.62l-0.02 0.02v50.04c0 5.52 4.48 10 10 10h21.9V362c0 5.52 4.48 10 10 10 5.54 0 10-4.48 10-10v-47.36h40.92V362c0 5.52 4.48 10 10 10s10-4.48 10-10v-47.36h21.9c5.52 0 10-4.48 10-10V254.6c0-36.5-27.18-66.76-62.36-71.64V149.4c0-22.8 18.54-41.34 41.34-41.34h549.4c22.8 0 41.34 18.54 41.34 41.34 0 22.68-18.46 41.22-41.08 41.32H601.18c-33.82 0-61.34 27.52-61.34 61.34 0 33.84 27.52 61.38 61.34 61.38h269.8c21.94 0 39.8 17.84 39.8 39.76v218.64H858.6l-82.62-151.82c-0.06-0.14-0.16-0.24-0.24-0.36-0.2-0.32-0.4-0.6-0.62-0.9-0.18-0.24-0.38-0.48-0.58-0.72-0.22-0.24-0.46-0.46-0.7-0.66a8.02 8.02 0 0 0-0.76-0.64c-0.24-0.18-0.52-0.34-0.78-0.5-0.28-0.18-0.56-0.34-0.86-0.46-0.28-0.14-0.58-0.26-0.88-0.36-0.32-0.12-0.62-0.22-0.94-0.3-0.3-0.08-0.6-0.12-0.9-0.18-0.36-0.04-0.72-0.08-1.1-0.1-0.14 0-0.28-0.04-0.42-0.04H383.66c-0.6 0.02-1.2 0.08-1.78 0.18-0.32 0.08-0.62 0.18-0.92 0.28-0.32 0.1-0.64 0.16-0.94 0.3-0.3 0.12-0.58 0.28-0.86 0.44-0.3 0.16-0.58 0.28-0.86 0.46s-0.52 0.42-0.76 0.62c-0.26 0.2-0.52 0.38-0.74 0.62-0.42 0.4-0.78 0.86-1.12 1.34-0.04 0.06-0.1 0.1-0.14 0.16l-103.26 152.64H108.42c-20.42 0-38.94 8.32-52.36 21.72-13.42 13.42-21.72 31.94-21.72 52.36v192.28c0 5.52 4.46 10 10 10h136c5.02 49.22 46.72 87.76 97.24 87.76 50.54 0 92.24-38.54 97.26-87.76H730c5.02 49.22 46.72 87.76 97.24 87.76 50.54 0 92.24-38.54 97.26-87.76h55.16c5.54 0 10-4.48 10-10v-197.46c0-34.6-25.62-63.32-58.88-68.16zM278.6 254.6v40.04H173.88v-40.02s0.02 0 0.02-0.02c0-28.86 23.46-52.34 52.32-52.34h0.04c28.86 0 52.34 23.48 52.34 52.34z m396.98 180.2h85.68l74.56 137.04h-160.24V434.8z m-187.06 0h167.06v137.04h-167.06V434.8z m-99.38 0h79.38v137.04h-172.1l92.72-137.04zM54.34 715.78h30.02v47.74H54.34v-47.74z m223.24 200.18c-42.88 0-77.76-34.9-77.76-77.76 0-42.88 34.88-77.78 77.76-77.78s77.76 34.9 77.76 77.78c0 42.86-34.88 77.76-77.76 77.76zM905 838.2c0 21.44-8.72 40.88-22.8 54.96-14.08 14.08-33.52 22.8-54.96 22.8-42.88 0-77.76-34.9-77.76-77.76 0-42.88 34.88-77.78 77.76-77.78s77.76 34.88 77.76 77.76v0.02z m64.66-10h-45.16c-5.02-49.24-46.72-87.78-97.26-87.78-50.52 0-92.22 38.54-97.24 87.78H374.84c-5.02-49.24-46.72-87.78-97.26-87.78-50.52 0-92.22 38.54-97.24 87.78h-126v-44.68h40.02c5.52 0 10-4.48 10-10v-67.74c0-5.52-4.48-10-10-10H54.34v-49.86c0-29.82 24.26-54.08 54.08-54.08h812.36c26.96 0 48.88 21.94 48.88 48.9v187.46z" fill="#bfbfbf" p-id="16939"></path><path d="M54.34 715.78h30.02v47.74H54.34z" fill="#bfbfbf" p-id="16940"></path><path d="M54.34 715.78h16.16v47.74h-16.16z" fill="#bfbfbf" opacity=".5" p-id="16941"></path><path d="M278.6 254.6v40.04H173.88v-40.02s0.02 0 0.02-0.02c0-28.86 23.46-52.34 52.32-52.34h0.04c28.86 0 52.34 23.48 52.34 52.34z" fill="#bfbfbf" p-id="16942"></path><path d="M278.6 254.6v18c0-28.86-23.48-52.34-52.34-52.34h-0.04c-28.86 0-52.32 23.48-52.32 52.34 0 0.02-0.02 0.02-0.02 0.02v-18s0.02 0 0.02-0.02c0-28.86 23.46-52.34 52.32-52.34h0.04c28.86 0 52.34 23.48 52.34 52.34z" fill="#bfbfbf" opacity=".4" p-id="16943"></path><path d="M173.88 276.64h104.72v18H173.88z" opacity=".2" p-id="16944" fill="#bfbfbf"></path><path d="M835.82 571.84h-160.24V434.8h85.68l69.5 127.74zM468.52 434.8v137.04h-172.1l41.26-61 10.82-15.98 4.22-6.22 8.3-12.28 8.66-12.8 13.82-20.42 5.64-8.34zM488.52 434.8h167.06v137.04h-167.06z" fill="#bfbfbf" p-id="16945"></path><path d="M835.82 571.84h-14.7l-59.86-110.04h-85.68v-27h85.68zM468.52 434.8v27h-79.38l-74.46 110.04h-18.26l92.72-137.04zM488.52 434.8h167.06v27h-167.06z" fill="#bfbfbf" opacity=".4" p-id="16946"></path><path d="M905 838.18v0.02c0 21.44-8.72 40.88-22.8 54.96-14.08 14.08-33.52 22.8-54.96 22.8-42.88 0-77.76-34.9-77.76-77.76 0-42.88 34.88-77.78 77.76-77.78s77.76 34.88 77.76 77.76zM355.34 838.2c0 6.34-0.76 12.5-2.22 18.4-1.88 7.78-4.94 15.12-9 21.8-2.4 3.96-5.14 7.68-8.18 11.14a79.584 79.584 0 0 1-9.46 9.08c-1.74 1.4-3.52 2.74-5.38 4a78.546 78.546 0 0 1-15.86 8.26c-8.6 3.28-17.92 5.08-27.66 5.08-42.88 0-77.76-34.9-77.76-77.76 0-9.74 1.8-19.08 5.08-27.68 2.16-5.62 4.94-10.94 8.26-15.84 1.26-1.86 2.6-3.64 4-5.38 2.76-3.4 5.8-6.58 9.08-9.46 3.44-3.04 7.18-5.78 11.12-8.2 6.68-4.04 14.02-7.12 21.8-9 5.9-1.46 12.08-2.22 18.42-2.22 42.88 0 77.76 34.9 77.76 77.78z" fill="#bfbfbf" p-id="16947"></path><path d="M827.24 768.42c38.466 0 69.76 31.294 69.76 69.78 0 18.602-7.266 36.112-20.456 49.304-13.192 13.192-30.702 20.456-49.304 20.456-38.466 0-69.76-31.294-69.76-69.76 0-38.476 31.294-69.78 69.76-69.78m0-8c-42.88 0-77.76 34.9-77.76 77.78 0 42.86 34.88 77.76 77.76 77.76 21.44 0 40.88-8.72 54.96-22.8 14.08-14.08 22.8-33.52 22.8-54.96v-0.02c0-42.88-34.88-77.76-77.76-77.76zM277.58 768.42c38.466 0 69.76 31.304 69.76 69.78a68.74 68.74 0 0 1-1.996 16.52 68.488 68.488 0 0 1-8.066 19.532 70.824 70.824 0 0 1-7.332 9.988 71.692 71.692 0 0 1-8.482 8.146 73.348 73.348 0 0 1-4.84 3.602 70.78 70.78 0 0 1-14.236 7.416 69.368 69.368 0 0 1-24.81 4.554c-38.466 0-69.76-31.294-69.76-69.76 0-8.55 1.532-16.904 4.548-24.81a70.468 70.468 0 0 1 7.416-14.224 72.214 72.214 0 0 1 3.588-4.824 70.356 70.356 0 0 1 8.166-8.508 72.196 72.196 0 0 1 9.962-7.35 69.166 69.166 0 0 1 19.582-8.08 68.954 68.954 0 0 1 16.5-1.982m0-8c-6.34 0-12.52 0.76-18.42 2.22-7.78 1.88-15.12 4.96-21.8 9a80.114 80.114 0 0 0-11.12 8.2 78.09 78.09 0 0 0-9.08 9.46c-1.4 1.74-2.74 3.52-4 5.38a78.388 78.388 0 0 0-8.26 15.84c-3.28 8.6-5.08 17.94-5.08 27.68 0 42.86 34.88 77.76 77.76 77.76 9.74 0 19.06-1.8 27.66-5.08 5.64-2.16 10.94-4.94 15.86-8.26 1.86-1.26 3.64-2.6 5.38-4 3.4-2.76 6.56-5.8 9.46-9.08 3.04-3.46 5.78-7.18 8.18-11.14 4.06-6.68 7.12-14.02 9-21.8 1.46-5.9 2.22-12.06 2.22-18.4 0-42.88-34.88-77.78-77.76-77.78z" opacity=".2" p-id="16948" fill="#bfbfbf"></path><path d="M879.97 838.196c0 29.064-23.652 52.73-52.73 52.73s-52.73-23.666-52.73-52.73c0-29.078 23.652-52.744 52.73-52.744s52.73 23.668 52.73 52.744z" fill="#bfbfbf" p-id="16949"></path><path d="M920.78 591.84H108.42c-29.82 0-54.08 24.26-54.08 54.08v49.86h40.02c5.52 0 10 4.48 10 10v67.74c0 5.52-4.48 10-10 10H54.34v44.68h126c4.68-45.88 41.2-82.48 87.04-87.24a95.4 95.4 0 0 1 10.2-0.54c10.32 0 20.26 1.6 29.6 4.58a97.96 97.96 0 0 1 38.9 23.5c15.82 15.56 26.38 36.44 28.76 59.7H730a96.76 96.76 0 0 1 9.52-33.1 98.286 98.286 0 0 1 39.8-42.1c11.68-6.6 24.86-10.88 38.9-12.16 2.96-0.28 5.98-0.42 9.02-0.42 10.74 0 21.08 1.74 30.76 4.96 35.86 11.9 62.54 44.04 66.5 82.82h45.16v-187.46c0-26.96-21.92-48.9-48.88-48.9z m-405.32 38.9h36.96c5.52 0 10 4.46 10 10 0 5.52-4.48 10-10 10h-36.96c-5.52 0-10-4.48-10-10 0-5.54 4.48-10 10-10z m185.16 175.86c-0.14 0.02-0.26 0.02-0.4 0.02h-295.6c-5.54 0-10-4.48-10-10s4.46-10 10-10h295.6c0.14 0 0.26 0 0.4 0.02a9.986 9.986 0 0 1 0 19.96z m38.9-156.14c-0.76 0.18-1.54 0.28-2.34 0.28h-36.96c-5.52 0-10-4.48-10-10 0-5.54 4.48-10 10-10h36.96c0.8 0 1.58 0.1 2.34 0.28a9.96 9.96 0 0 1 7.66 9.72 9.98 9.98 0 0 1-7.66 9.72z" fill="#bfbfbf" p-id="16950"></path><path d="M920.78 599.84c22.542 0 40.88 18.348 40.88 40.9v179.46h-30.178c-8.61-50.528-52.214-87.78-104.242-87.78-52.018 0-95.614 37.252-104.222 87.78H381.822c-8.61-50.528-52.214-87.78-104.242-87.78-52.018 0-95.614 37.252-104.222 87.78H62.34v-28.68h32.02c9.926 0 18-8.074 18-18v-67.74c0-9.926-8.074-18-18-18H62.34v-41.86c0-25.408 20.672-46.08 46.08-46.08h812.36m-220.56 58.9h36.96c9.926 0 18-8.074 18-18s-8.074-18-18-18h-36.96c-9.926 0-18 8.074-18 18s8.074 18 18 18m-184.76 0h36.96c9.926 0 18-8.074 18-18s-8.074-18-18-18h-36.96c-9.926 0-18 8.074-18 18s8.074 18 18 18m-110.84 155.88h295.6c9.926 0 18-8.074 18-18s-8.074-18-18-18h-295.6c-9.926 0-18 8.074-18 18s8.074 18 18 18m516.16-222.78H108.42c-29.82 0-54.08 24.26-54.08 54.08v49.86h40.02c5.52 0 10 4.48 10 10v67.74c0 5.52-4.48 10-10 10H54.34v44.68h126c5.02-49.24 46.72-87.78 97.24-87.78 50.54 0 92.24 38.54 97.26 87.78H730c5.02-49.24 46.72-87.78 97.24-87.78 50.54 0 92.24 38.54 97.26 87.78h45.16v-187.46c0-26.96-21.92-48.9-48.88-48.9z m-220.56 58.9c-5.52 0-10-4.48-10-10 0-5.54 4.48-10 10-10h36.96c5.52 0 10 4.46 10 10 0 5.52-4.48 10-10 10h-36.96z m-184.76 0c-5.52 0-10-4.48-10-10 0-5.54 4.48-10 10-10h36.96c5.52 0 10 4.46 10 10 0 5.52-4.48 10-10 10h-36.96z m-110.84 155.88c-5.54 0-10-4.48-10-10s4.46-10 10-10h295.6c5.52 0 10 4.48 10 10s-4.48 10-10 10h-295.6z" opacity=".2" p-id="16951" fill="#bfbfbf"></path><path d="M710.22 796.62c0 5.52-4.48 10-10 10h-295.6c-5.54 0-10-4.48-10-10s4.46-10 10-10h295.6c5.52 0 10 4.48 10 10zM562.42 640.74c0 5.52-4.48 10-10 10h-36.96c-5.52 0-10-4.48-10-10 0-5.54 4.48-10 10-10h36.96c5.52 0 10 4.46 10 10zM747.18 640.74c0 5.52-4.48 10-10 10h-36.96c-5.52 0-10-4.48-10-10 0-5.54 4.48-10 10-10h36.96c5.52 0 10 4.46 10 10z" fill="#bfbfbf" p-id="16952"></path><path d="M330.32 838.2c0 7.72-1.68 15.08-4.7 21.7a52.56 52.56 0 0 1-7.42 11.9c-2.8 3.38-6.02 6.4-9.58 8.96-1.82 1.36-3.74 2.58-5.72 3.66a51.928 51.928 0 0 1-18.12 6c-2.36 0.34-4.76 0.5-7.2 0.5-29.08 0-52.74-23.66-52.74-52.72 0-2.46 0.16-4.88 0.5-7.24a52.238 52.238 0 0 1 9.66-23.82c2.58-3.56 5.6-6.76 8.98-9.56 3.6-2.98 7.6-5.5 11.9-7.42a52.12 52.12 0 0 1 21.7-4.7c1.56 0 3.1 0.06 4.62 0.22 25.4 2.2 45.7 22.5 47.9 47.9 0.16 1.52 0.22 3.06 0.22 4.62z" fill="#bfbfbf" p-id="16953"></path><path d="M425.48 571.84h-26.8l-61-61 10.82-15.98zM456.48 571.84h-20.56l-83.2-83.2 8.3-12.28zM468.52 528.16v34.24l-98.84-98.84 13.82-20.42z" fill="#bfbfbf" opacity=".4" p-id="16954"></path><path d="M598.98 571.84h-26.8l-83.66-83.66v-26.8zM629.98 571.84h-20.6l-120.86-120.86v-16.18h4.42zM655.58 541.74v30.1h-4.14L514.4 434.8h34.22z" fill="#bfbfbf" opacity=".4" p-id="16955"></path><path d="M753.38 571.84h-26.8l-51-51v-26.8zM784.38 571.84h-20.6l-88.2-88.2v-20.6zM835.82 571.84h-29.98l-130.26-130.24v-6.8h27.44l127.74 127.74z" fill="#bfbfbf" opacity=".4" p-id="16956"></path><path d="M302.9 884.42a51.928 51.928 0 0 1-18.12 6l-59.44-59.46c0.9-6.48 2.96-12.6 6-18.1l71.56 71.56zM318.2 871.8c-2.8 3.38-6.02 6.4-9.58 8.96l-73.62-73.62c2.58-3.56 5.6-6.76 8.98-9.56l74.22 74.22zM330.32 838.2c0 7.72-1.68 15.08-4.7 21.7l-69.74-69.74a52.12 52.12 0 0 1 21.7-4.7c1.56 0 3.1 0.06 4.62 0.22l47.9 47.9c0.16 1.52 0.22 3.06 0.22 4.62z" fill="#bfbfbf" opacity=".7" p-id="16957"></path><path d="M852.31 884.42a51.928 51.928 0 0 1-18.12 6l-59.44-59.46c0.9-6.48 2.96-12.6 6-18.1l71.56 71.56zM867.61 871.8c-2.8 3.38-6.02 6.4-9.58 8.96l-73.62-73.62c2.58-3.56 5.6-6.76 8.98-9.56l74.22 74.22zM879.73 838.2c0 7.72-1.68 15.08-4.7 21.7l-69.74-69.74a52.12 52.12 0 0 1 21.7-4.7c1.56 0 3.1 0.06 4.62 0.22l47.9 47.9c0.16 1.52 0.22 3.06 0.22 4.62z" fill="#bfbfbf" opacity=".7" p-id="16958"></path><path d="M307.18 591.84v153.16a97.192 97.192 0 0 0-29.6-4.58c-3.44 0-6.86 0.18-10.2 0.54v-149.12h39.8zM385.86 591.84V828.2h-11.02c-2.38-23.26-12.94-44.14-28.76-59.7v-176.66h39.78zM424.76 591.84h39.8v194.78h-39.8zM424.76 806.62h39.8v21.58h-39.8zM505.46 640.74c0 5.52 4.48 10 10 10h27.78v135.88h-39.78v-194.78h39.78v38.9h-27.78c-5.52 0-10 4.46-10 10zM503.46 806.62h39.78v21.58h-39.78zM582.14 591.84h39.8v194.78h-39.8zM582.14 806.62h39.8v21.58h-39.8zM690.22 640.74c0 5.52 4.48 10 10 10h0.4v135.9c-0.14-0.02-0.26-0.02-0.4-0.02h-39.38v-194.78h39.78v38.9h-0.4c-5.52 0-10 4.46-10 10zM700.22 806.62c0.14 0 0.26 0 0.4-0.02v21.6h-39.78v-21.58h39.38zM779.32 591.84v161.16a98.286 98.286 0 0 0-39.8 42.1v-144.64a9.98 9.98 0 0 0 7.66-9.72 9.96 9.96 0 0 0-7.66-9.72v-39.18h39.8zM858 591.84v153.54a97.274 97.274 0 0 0-30.76-4.96c-3.04 0-6.06 0.14-9.02 0.42v-149H858z" opacity=".1" p-id="16959" fill="#bfbfbf"></path></svg>