<?xml version="1.0" standalone="no"?><!DOCTYPE svg PUBLIC "-//W3C//DTD SVG 1.1//EN" "http://www.w3.org/Graphics/SVG/1.1/DTD/svg11.dtd"><svg t="1662368203594" class="icon" viewBox="0 0 1024 1024" version="1.1" xmlns="http://www.w3.org/2000/svg" p-id="10145" xmlns:xlink="http://www.w3.org/1999/xlink" width="64" height="64"><path d="M672.156597 364.518025c-5.680453-15.144211-11.359906-24.610966-28.400265-24.610965H380.578341c-17.03936 0-24.613963 11.359906-28.402263 24.610965l-37.86702 98.455852h395.713561l-37.866022-98.455852zM692.98226 512.200804c-24.614962 0-43.546474 18.934509-43.546475 43.547473s18.931512 43.547473 43.546475 43.547473c22.719813 0 41.654322-20.825662 43.547473-43.547473 0-24.612964-18.932511-43.547473-43.547473-43.547473zM329.456265 512.200804c-24.614962 0-43.546474 18.934509-43.546474 43.547473s18.932511 43.547473 43.546474 43.547473 43.546474-20.825662 43.546475-43.547473c0-24.612964-18.931512-43.547473-43.546475-43.547473z" p-id="10146" fill="#bfbfbf"></path><path d="M511.500488 0.999024C229.00736 0.999024 0 230.005385 0 512.499512s229.006361 511.500488 511.500488 511.500488 511.500488-229.006361 511.500488-511.500488S793.994615 0.999024 511.500488 0.999024z m302.657436 694.858428h-56.80153v39.762169c0 64.373136-75.733042 62.481982-75.733042 0v-39.762169h-340.80718v39.762169c0 62.481982-75.734041 64.373136-75.734041 0v-39.762169h-56.80153V534.922615c0-43.547473 35.974868-66.269284 54.905381-68.161436l49.229924-126.855119c9.467754-24.615961 30.294416-45.442622 68.161436-45.442622h71.945741s22.72281-53.014228 34.081717-53.014228h51.122076c11.359906 0 34.079719 53.014228 34.079719 53.014228h70.053588c37.869019 0 58.696679 20.826661 68.161437 45.442622l49.228924 126.855119c20.82766 1.892152 54.90638 24.613963 54.906381 68.161436v160.934837z" p-id="10147" fill="#bfbfbf"></path></svg>