<?xml version="1.0" standalone="no"?><!DOCTYPE svg PUBLIC "-//W3C//DTD SVG 1.1//EN" "http://www.w3.org/Graphics/SVG/1.1/DTD/svg11.dtd"><svg t="1662368145211" class="icon" viewBox="0 0 1024 1024" version="1.1" xmlns="http://www.w3.org/2000/svg" p-id="8963" xmlns:xlink="http://www.w3.org/1999/xlink" width="64" height="64"><path d="M575.98643 618.752613v255.945718H853.260958a63.98643 63.98643 0 0 1 0 127.972859H170.739042a63.98643 63.98643 0 0 1 0-127.972859h277.274528v-255.945718H384.027141a63.98643 63.98643 0 0 1 0-127.972859h255.945718a63.98643 63.98643 0 0 1 0 127.972859h-63.986429zM427.708543 72.137874a85.315239 85.315239 0 0 1 168.582914 0 445.814783 445.814783 0 0 1 232.441369 123.280521c174.896241 174.896241 174.896241 458.484096 0 633.422995a63.98643 63.98643 0 0 1-90.519469-90.519469 319.932148 319.932148 0 1 0-452.426714 0 63.98643 63.98643 0 1 1-90.519469 90.519469c-174.896241-174.896241-174.896241-458.569412 0-633.465653a445.814783 445.814783 0 0 1 232.484027-123.237863z" fill="#333333" p-id="8964"></path></svg>