<?xml version="1.0" standalone="no"?><!DOCTYPE svg PUBLIC "-//W3C//DTD SVG 1.1//EN" "http://www.w3.org/Graphics/SVG/1.1/DTD/svg11.dtd"><svg t="1662367812833" class="icon" viewBox="0 0 1159 1024" version="1.1" xmlns="http://www.w3.org/2000/svg" p-id="4982" xmlns:xlink="http://www.w3.org/1999/xlink" width="72.4375" height="64"><path d="M1145.413777 222.996389l-309.827965-121.611327a19.211327 19.211327 0 0 0-24.929416 11.010265 19.41069 19.41069 0 0 0 10.93777 25.092531l201.583009 79.119859c-0.009062 0.32623-0.04531 0.643398-0.04531 0.969628v35.912496h-676.474336a19.311009 19.311009 0 0 0-19.256637 19.374442c0 10.693097 8.617912 19.374442 19.256637 19.374443h676.474336v41.204672H897.216113a19.311009 19.311009 0 0 0-19.247575 19.374443c0 10.702159 8.60885 19.374442 19.247575 19.374442h125.915752v41.213735H134.544538v-41.213735h698.494867a19.311009 19.311009 0 0 0 19.256637-19.374442c0-10.693097-8.60885-19.374442-19.247575-19.374443H134.544538V292.247788h147.945345a19.311009 19.311009 0 0 0 19.247575-19.374443c0-10.702159-8.60885-19.374442-19.247575-19.374442H134.544538V217.577345c0-0.32623-0.036248-0.643398-0.054372-0.969628L578.833671 42.201487l169.458407 66.51469a19.211327 19.211327 0 0 0 24.938478-11.010265 19.41069 19.41069 0 0 0-10.93777-25.092531L585.838556 3.35292a19.138832 19.138832 0 0 0-13.991646 0L12.262627 222.996389a19.41069 19.41069 0 0 0-10.93777 25.083469 19.256637 19.256637 0 0 0 17.942655 12.342372c2.319858 0 4.685027-0.425912 6.977699-1.332106l69.786053-27.385204v470.858761c0 10.702159 8.617912 19.374442 19.256637 19.374443a19.311009 19.311009 0 0 0 19.247575-19.374443V452.163965h888.596389V983.221239h-152.965663v-44.856637h26.95023a19.311009 19.311009 0 0 0 19.247575-19.374443V856.988319c0-10.693097-8.60885-19.374442-19.247575-19.374443H882.997919V709.641062a61.983717 61.983717 0 0 0-26.207151-50.647221l14.336-14.42662h31.118726a19.311009 19.311009 0 0 0 19.256637-19.374442c0-10.693097-8.617912-19.374442-19.256637-19.374443h-39.084177c-5.110938 0-10.004389 2.038938-13.620106 5.672779l-32.894868 33.112354-21.023716-89.667965c-7.521416-32.052106-35.622513-54.435115-68.345204-54.435115h-302.03469c-32.713628 0-60.805664 22.383009-68.32708 54.435115l-20.054088 85.490408-28.735434-28.934797a19.184142 19.184142 0 0 0-13.620106-5.672779h-39.093239a19.311009 19.311009 0 0 0-19.247575 19.374443c0 10.693097 8.60885 19.374442 19.247575 19.374442h31.118726l14.345061 14.42662a61.965593 61.965593 0 0 0-26.20715 50.647221v127.972814h-14.118513a19.311009 19.311009 0 0 0-19.256637 19.374443v62.00184c0 10.693097 8.617912 19.374442 19.256637 19.374443h26.95023v44.856637h-152.965664V767.148177c0-10.693097-8.60885-19.374442-19.247575-19.374442a19.311009 19.311009 0 0 0-19.247575 19.374442V983.221239h-56.999646a19.311009 19.311009 0 0 0-19.256638 19.374442c0 10.693097 8.617912 19.374442 19.256638 19.374443h1079.595044a19.311009 19.311009 0 0 0 19.247575-19.374443c0-10.693097-8.60885-19.374442-19.247575-19.374442h-56.999646V231.713982l69.786053 27.394266a19.256637 19.256637 0 0 0 24.929416-11.010266 19.419752 19.419752 0 0 0-10.93777-25.101593zM394.377742 563.834336a31.635257 31.635257 0 0 1 30.864991-24.585062h302.03469a31.626195 31.626195 0 0 1 30.855929 24.585062l19.682549 83.913629H374.704255l19.682549-83.913629zM279.789423 899.615717v-23.252956h125.897628a19.311009 19.311009 0 0 0 19.247576-19.374442c0-10.693097-8.60885-19.374442-19.247576-19.374443h-92.522478V709.641062a23.107965 23.107965 0 0 1 22.999222-23.153274h485.339752a23.107965 23.107965 0 0 1 22.999221 23.153274v127.972814H469.854697a19.311009 19.311009 0 0 0-19.247575 19.374443c0 10.693097 8.60885 19.374442 19.247575 19.374442h408.01416v23.252956H279.789423zM385.043936 983.221239h-59.038584v-44.856637h59.038584v44.856637z m349.093381 0H423.539087v-44.856637h310.589168v44.856637z m97.542796 0H772.623405v-44.856637h59.038584v44.856637z" fill="#bfbfbf" p-id="4983"></path><path d="M391.450733 699.401062c-34.680071 0-62.889912 28.400142-62.889912 63.297699 0 34.897558 28.209841 63.288637 62.889912 63.288637 34.680071 0 62.889912-28.39108 62.889911-63.288637s-28.209841-63.288637-62.889911-63.288637z m0 87.837451a24.494442 24.494442 0 0 1-24.376637-24.539752 24.494442 24.494442 0 0 1 24.376637-24.539752 24.494442 24.494442 0 0 1 24.385699 24.539752 24.494442 24.494442 0 0 1-24.376637 24.539752zM766.207547 699.401062c-34.671009 0-62.889912 28.400142-62.889912 63.297699 0 34.897558 28.218903 63.288637 62.889912 63.288637 34.680071 0 62.889912-28.39108 62.889911-63.288637s-28.209841-63.288637-62.889911-63.288637z m0 87.837451a24.494442 24.494442 0 0 1-24.376637-24.539752 24.494442 24.494442 0 0 1 24.376637-24.539752 24.494442 24.494442 0 0 1 24.385699 24.539752 24.494442 24.494442 0 0 1-24.376637 24.539752z" fill="#bfbfbf" p-id="4984"></path></svg>