<?xml version="1.0" standalone="no"?><!DOCTYPE svg PUBLIC "-//W3C//DTD SVG 1.1//EN" "http://www.w3.org/Graphics/SVG/1.1/DTD/svg11.dtd"><svg t="1663757754938" class="icon" viewBox="0 0 1024 1024" version="1.1" xmlns="http://www.w3.org/2000/svg" p-id="9593" xmlns:xlink="http://www.w3.org/1999/xlink" width="64" height="64"><path d="M870.797459 439.373324l-56.366972-0.722654-46.972477-195.839096c-5.781228-26.738179-32.519407-78.046577-93.222301-78.046578h-332.420607c-60.702893 0-87.441073 51.308398-93.2223 77.323924l-46.972477 197.284404H158.983769c-62.1482 0-112.733945 50.585745-112.011292 112.733945v122.851094c0 29.628793 11.562456 58.534933 33.242061 79.491884 20.956951 20.956951 49.140438 32.519407 79.491884 32.519407h5.058574c1.445307 31.0741 18.788991 47.695131 32.519408 56.366973 15.898377 9.394495 36.855328 14.45307 62.1482 14.45307h0.722654c26.015526 0 46.972477-5.058574 62.870854-15.175724 13.730416-8.671842 30.351447-25.292872 32.519407-55.644319h318.69019c2.16796 25.292872 16.62103 69.374735 94.667608 69.374736h0.722653c80.214538 0 93.222301-46.249824 94.667608-70.820043h5.781228c29.628793 0 58.534933-11.562456 79.491884-33.24206s33.242061-49.863091 32.519407-79.491885l0.722654-121.405787c0.722653-61.425547-49.863091-112.011291-112.011292-112.011291zM297.733239 253.651376c0.722653-3.613267 10.117149-38.300635 44.081863-38.300635h333.143261c33.964714 0 42.636556 34.687368 44.081863 39.023289l44.081863 184.27664h-10.117149-0.722653l-498.630911 1.445307 44.081863-186.444601zM932.223006 673.513056c0 16.62103-6.503881 31.796754-18.066337 44.081863-11.562456 11.562456-27.460833 18.066337-44.081863 18.066337h-31.0741c-13.730416 0-25.292872 11.562456-25.292873 25.292872v20.234298c0 8.671842 0 25.292872-44.804516 25.292873h-0.722654c-20.234298 0-30.351447-3.613267-36.132674-7.226535-4.335921-2.890614-8.671842-7.226535-8.671842-18.066338v-18.788991c0-13.730416-11.562456-25.292872-25.292872-25.292872H330.252646c-13.730416 0-25.292872 11.562456-25.292872 25.292872v20.234298c0 11.562456-4.335921 15.898377-8.671842 18.066338-5.058574 3.613267-15.898377 7.226535-36.132674 7.226535s-31.0741-3.613267-36.132675-7.226535c-4.335921-2.890614-8.671842-7.226535-8.671842-18.066338v-20.234298c0-13.730416-11.562456-25.292872-25.292872-25.292872h-30.351447c-15.898377 0-31.796754-6.503881-44.081863-18.066337s-18.066337-27.460833-18.066337-44.081863v-122.851094c0-33.964714 27.460833-62.1482 62.1482-62.148201l594.021172-1.445307 117.792519 0.722654c16.62103 0 31.796754 6.503881 44.081863 18.066337 11.562456 11.562456 18.066337 27.460833 18.066337 44.081863l-1.445307 122.128441z" fill="#bfbfbf" p-id="9594"></path><path d="M417.693719 622.927311m-27.460833 0a27.460833 27.460833 0 1 0 54.921666 0 27.460833 27.460833 0 1 0-54.921666 0Z" fill="#bfbfbf" p-id="9595"></path><path d="M513.806634 622.927311m-27.460833 0a27.460833 27.460833 0 1 0 54.921665 0 27.460833 27.460833 0 1 0-54.921665 0Z" fill="#bfbfbf" p-id="9596"></path><path d="M609.919548 622.927311m-27.460832 0a27.460833 27.460833 0 1 0 54.921665 0 27.460833 27.460833 0 1 0-54.921665 0Z" fill="#bfbfbf" p-id="9597"></path></svg>