<?xml version="1.0" standalone="no"?><!DOCTYPE svg PUBLIC "-//W3C//DTD SVG 1.1//EN" "http://www.w3.org/Graphics/SVG/1.1/DTD/svg11.dtd"><svg t="1662369455615" class="icon" viewBox="0 0 1024 1024" version="1.1" xmlns="http://www.w3.org/2000/svg" p-id="32159" xmlns:xlink="http://www.w3.org/1999/xlink" width="64" height="64"><path d="M295.822222 523.377778v-68.266667a45.511111 45.511111 0 1 0-91.022222 0v227.555556a45.511111 45.511111 0 0 0 45.511111 45.511111h546.133333a45.511111 45.511111 0 0 0 45.511112-45.511111V455.111111a45.511111 45.511111 0 1 0-91.022223 0v68.266667H295.822222z m216.177778 500.622222C229.239467 1024 0 794.760533 0 512S229.239467 0 512 0 1024 229.239467 1024 512 794.760533 1024 512 1024zM386.844444 250.311111a68.266667 68.266667 0 0 0-68.266666 68.266667v182.044444h409.6v-182.044444a68.266667 68.266667 0 0 0-68.266667-68.266667H386.844444z m-113.777777 500.622222v45.511111h477.866666v-45.511111H273.066667z" p-id="32160" fill="#bfbfbf"></path></svg>