<?xml version="1.0" standalone="no"?><!DOCTYPE svg PUBLIC "-//W3C//DTD SVG 1.1//EN" "http://www.w3.org/Graphics/SVG/1.1/DTD/svg11.dtd"><svg t="1662369372511" class="icon" viewBox="0 0 1024 1024" version="1.1" xmlns="http://www.w3.org/2000/svg" p-id="31131" xmlns:xlink="http://www.w3.org/1999/xlink" width="64" height="64"><path d="M636.700444 336.099556H134.200889V984.462222c0 23.466667 14.364444 37.774222 37.802667 37.774222h426.894222c23.438222 0 40.220444-14.307556 37.802666-37.774222V336.099556zM228.693333 515.015111a18.915556 18.915556 0 0 1-37.802666 0v-116.394667a18.915556 18.915556 0 1 1 37.802666 0v116.366223zM598.897778 1.706667H172.003556C148.565333 1.735111 134.172444 16.099556 134.172444 39.537778v265.671111h502.528V39.537778c2.417778-23.438222-14.364444-37.802667-37.831111-37.802667zM228.693333 204.458667a18.915556 18.915556 0 1 1-37.802666 0V109.568a18.887111 18.887111 0 0 1 37.802666 0v94.890667zM668.103111 645.404444c5.205333-0.654222 10.467556-1.137778 15.843556-1.137777a122.823111 122.823111 0 1 1 0 245.674666c-5.404444 0-10.638222-0.455111-15.843556-1.137777v75.690666h205.454222a21.504 21.504 0 0 0 21.475556-21.475555V556.316444h-226.929778v89.116445z m205.454222-224.711111h-205.454222v104.704h226.929778v-83.256889a21.475556 21.475556 0 0 0-21.475556-21.475555z" p-id="31132" fill="#cdcdcd"></path></svg>