<?xml version="1.0" standalone="no"?><!DOCTYPE svg PUBLIC "-//W3C//DTD SVG 1.1//EN" "http://www.w3.org/Graphics/SVG/1.1/DTD/svg11.dtd"><svg t="1662369508915" class="icon" viewBox="0 0 1024 1024" version="1.1" xmlns="http://www.w3.org/2000/svg" p-id="33434" xmlns:xlink="http://www.w3.org/1999/xlink" width="64" height="64"><path d="M704.24286 321.495506l0 608.428201q0 17.383663-6.646695 33.744757t-19.940084 30.165768-32.210905 21.985221-44.481726 8.180547l-116.572798 0q-52.150989 0-76.181346-29.654484t-24.030357-69.534651l0-603.315358 320.063911 0zM639.821051 255.02856l-192.24286 0 0-108.392251q0-17.383663 2.045137-27.609347t7.157979-17.383663 13.293389-13.804673 19.4288-16.872379q32.722189-29.654484 52.662273-44.481726t36.301178-19.940084q23.519073-8.180547 36.301178-6.13541t18.406231 11.248252 6.13541 23.519073 0.511284 29.654484l0 190.197723z" p-id="33435" fill="#bfbfbf"></path></svg>